<?xml version="1.0" encoding="utf-8"?>
<!-- Generator: Adobe Illustrator 19.2.1, SVG Export Plug-In . SVG Version: 6.00 Build 0)  -->
<svg version="1.1" id="Layer_1" xmlns="http://www.w3.org/2000/svg" xmlns:xlink="http://www.w3.org/1999/xlink" x="0px" y="0px"
	 viewBox="0 0 50 100" style="enable-background:new 0 0 50 100;" xml:space="preserve">
<style type="text/css">
	.st0{fill:#FFFFFF;stroke:#ff7f0e;stroke-width:2px;stroke-miterlimit:10;}
	.st1{fill:none;stroke:#ff7f0e;stroke-width:2px;stroke-miterlimit:10;}
</style>
<circle class="st0" cx="16.8" cy="12" r="10"/>
<path class="st0" d="M38.9,24.5H9.7c-1.5,0-2.9,1.3-2.9,3v0.7v0.6v35.6c0,1.5,1.3,2.8,2.6,2.8c1.4,0,2.6-0.9,2.6-2.4l1.2-32.3h1.7
	v18.1v1v43c0,2.4,1.6,4.3,3.5,4.3s3.5-1.9,3.5-4.3v-32c1,0.2,1.8,0.3,2.5,0.3s1.5-0.1,2.5-0.3v32.1c0,2.4,1.6,4.3,3.5,4.3
	s3.5-1.9,3.5-4.3v-43v-1V32.5h1.4l1.3,32.3c0,1.5,1.3,2.6,2.6,2.6c1.4,0,2.6-1.4,2.6-3V28.8v-0.6v-0.7
	C41.8,25.8,40.3,24.5,38.9,24.5z"/>
<g>
	<polygon class="st0" points="47.5,16.1 29.6,22.4 25.9,21.6 46.8,14.2 	"/>
	<line class="st1" x1="39.3" y1="16.9" x2="40" y2="18.8"/>
</g>
<path class="st1" d="M29.8,10.7c0.3-0.7,1.2-0.9,1.8-0.6c0.7,0.3,0.9,1.2,0.6,1.8c-0.3,0.7-3,2.9-3,2.9S29.5,11.4,29.8,10.7z"/>
<path class="st1" d="M34.5,13.5c0.6-0.2,1.4,0.1,1.6,0.8c0.2,0.6-0.1,1.4-0.8,1.6c-0.6,0.2-3.9,0-3.9,0S33.8,13.7,34.5,13.5z"/>
</svg>
